<svg xmlns="http://www.w3.org/2000/svg" viewBox="0 0 48 48" role="img" aria-label="WhatsApp">
  <circle cx="24" cy="24" r="22" fill="#25d366"/>
  <path fill="#fff" d="M35.2 28.9c-.5-.3-3.2-1.6-3.7-1.8-.5-.2-.9-.3-1.3.3-.4.5-1.5 1.8-1.8 2.2-.3.4-.7.4-1.2.1-.5-.3-2.3-.8-4.3-2.7-1.6-1.4-2.7-3.2-3-3.7-.3-.5 0-.8.3-1.1.3-.3.5-.7.8-1 .3-.3.4-.6.5-1 .2-.4.1-.8 0-1.1-.1-.3-1.3-3.1-1.8-4.2-.5-1.1-.9-1-1.3-1h-1.1c-.4 0-1 .1-1.5.7-.5.5-2 1.9-2 4.7 0 2.8 2 5.5 2.3 5.9.3.4 4 6.1 9.7 8.5 1.4.6 2.4.9 3.3 1.2 1.4.4 2.6.4 3.6.2 1.1-.2 3.2-1.3 3.7-2.6.5-1.3.5-2.4.3-2.6-.1-.3-.5-.4-1-.7z"/>
  <path fill="#fff" d="M24 8.8c-8.3 0-15 6.7-15 15 0 2.7.7 5.2 2 7.4L9.1 39l8-1.9c2.1 1.1 4.4 1.7 6.9 1.7 8.3 0 15-6.7 15-15s-6.7-15-15-15zm0 27.2c-2.2 0-4.3-.6-6.1-1.7l-.5-.3-4.7 1.1 1.1-4.6-.3-.5c-1.2-1.9-1.8-4.1-1.8-6.3 0-6.8 5.5-12.3 12.3-12.3s12.3 5.5 12.3 12.3S30.8 36 24 36z"/>
</svg>
